<svg width="111" height="28" viewBox="0 0 111 28" fill="none" xmlns="http://www.w3.org/2000/svg">
<path d="M103.437 8.20457C105.702 8.20457 107.538 6.36792 107.538 4.10229C107.538 1.83666 105.702 0 103.437 0C101.172 0 99.3364 1.83666 99.3364 4.10229C99.3364 6.36792 101.172 8.20457 103.437 8.20457Z" fill="#2B7FFF"/>
<path d="M4.3155 27.3969H0V7.65991H7.45974C9.56588 7.65991 11.2916 8.26785 12.6368 9.48371C13.9821 10.6996 14.6564 12.4842 14.6598 14.8377C14.6598 17.1894 13.9338 19.0216 12.482 20.334C11.0336 21.6445 9.13737 22.3484 7.18503 22.3002H4.3155V27.3969ZM6.71302 11.5274H4.3155V18.4253H6.17607C7.42644 18.4253 8.4254 18.1088 9.17295 17.4759C9.92051 16.843 10.2918 15.9702 10.2868 14.8576C10.2868 13.7567 9.97046 12.9239 9.33779 12.3593C8.70511 11.7947 7.82935 11.5174 6.71052 11.5274H6.71302Z" fill="#333333"/>
<path d="M24.1 7.65991H24.3498L34.3394 27.4918L34.2095 27.7017H29.7641L28.4805 24.8036H19.9044L18.5932 27.7017H14.2652L14.1079 27.4918L24.1 7.65991ZM24.2049 15.2674L21.6476 20.9336H26.7348L24.2049 15.2674Z" fill="#333333"/>
<path d="M40.6353 27.3969H36.3198V7.65991H43.9644C46.6666 7.65991 48.6553 8.67008 49.9307 10.6904C50.6554 11.838 51.0207 13.1761 50.9796 14.5329C50.9796 17.1978 49.9565 19.1965 47.9103 20.5289L51.7538 27.192L51.6738 27.4018H47.2435L44.0168 21.7831C43.777 21.8073 43.536 21.8165 43.2951 21.8105H40.6353V27.3969ZM43.0853 11.5274H40.6353V17.9406H42.6333C43.8287 17.9406 44.7902 17.6391 45.5178 17.0362C45.8731 16.7426 46.156 16.371 46.3444 15.9503C46.5328 15.5296 46.6217 15.071 46.6041 14.6103C46.6041 13.611 46.2828 12.8473 45.6401 12.3193C44.9975 11.7914 44.1459 11.5274 43.0853 11.5274Z" fill="#333333"/>
<path d="M63.0825 23.7239C65.0138 23.7239 66.6222 22.9194 67.9075 21.3105L71.0792 24.3385C68.9581 26.7802 66.2617 28.0002 62.9901 27.9985C61.6778 28.0209 60.3748 27.7742 59.1614 27.2737C57.9481 26.7731 56.85 26.0292 55.9349 25.088C54.0219 23.1459 53.0654 20.7192 53.0654 17.8078C53.0654 14.8964 54.0311 12.4813 55.9624 10.5626C57.8937 8.62885 60.2846 7.66199 63.135 7.66199C64.5411 7.63327 65.9374 7.90297 67.2318 8.45332C68.5263 9.00366 69.6894 9.82216 70.6446 10.8549L67.5104 13.8329C66.97 13.2216 66.3033 12.7351 65.5565 12.4068C64.8097 12.0785 64.0005 11.9164 63.1849 11.9317C62.4101 11.9143 61.6403 12.0612 60.9263 12.3626C60.2122 12.664 59.5699 13.1132 59.0417 13.6805C57.9906 14.7858 57.4157 16.26 57.4409 17.7853C57.4132 19.3386 57.9868 20.8424 59.0417 21.9825C59.5511 22.5456 60.1755 22.9925 60.8727 23.293C61.5699 23.5934 62.3235 23.7404 63.0825 23.7239Z" fill="#333333"/>
<path d="M87.05 11.5274V12.0695V16.0918H77.7022V7.65991H73.3867V27.3993H77.7022V20.3565H87.05V27.3993H91.378V20.3565V20.329V16.0918V12.0695V11.5274V7.65991H87.05V11.5274Z" fill="#333333"/>
<path d="M95.4883 7.65991V27.3969H101.055V13.2287C101.055 11.7518 100.468 10.3353 99.4245 9.29098C98.3806 8.24663 96.9647 7.65991 95.4883 7.65991Z" fill="#333333"/>
<path d="M105.166 13.2262V27.3969H110.732V7.65991C109.256 7.65991 107.841 8.24628 106.797 9.2901C105.753 10.3339 105.166 11.7497 105.166 13.2262Z" fill="#333333"/>
</svg>
